<mxfile host="app.diagrams.net" modified="2023-06-09T14:20:06.120Z" agent="Mozilla/5.0 (X11; Linux x86_64; rv:109.0) Gecko/20100101 Firefox/112.0" etag="0caB5uHw2KW040coykQS" version="21.2.9" type="device">
  <diagram name="PÃ¡gina-1" id="rv1GZsYBsKcosjENSZ3p">
    <mxGraphModel dx="1037" dy="255" grid="0" gridSize="10" guides="0" tooltips="1" connect="1" arrows="1" fold="1" page="0" pageScale="1" pageWidth="827" pageHeight="1169" math="0" shadow="0">
      <root>
        <mxCell id="0" />
        <mxCell id="1" parent="0" />
        <mxCell id="VNmvDEX7WC0NjHx1_vTM-1" value="Spring Boot" style="shape=image;verticalLabelPosition=bottom;labelBackgroundColor=default;verticalAlign=top;aspect=fixed;imageAspect=0;image=https://pbs.twimg.com/profile_images/1235943430519435264/fgg5R6sI_400x400.png;" vertex="1" parent="1">
          <mxGeometry x="245" y="820" width="130" height="130" as="geometry" />
        </mxCell>
        <mxCell id="VNmvDEX7WC0NjHx1_vTM-2" value="" style="shape=image;verticalLabelPosition=bottom;labelBackgroundColor=default;verticalAlign=top;aspect=fixed;imageAspect=0;image=https://upload.wikimedia.org/wikipedia/commons/a/af/Logo-Red-Hat-Fuse-A-Standard-RGB-copy-52321594-3528-49ff-9cd2-56ab130eea5e_bc7349ff-b876-42fd-b643-5a4e424352fa.png;" vertex="1" parent="1">
          <mxGeometry x="220" y="780" width="172" height="62.54" as="geometry" />
        </mxCell>
        <mxCell id="VNmvDEX7WC0NjHx1_vTM-3" value="Componente Quartz2" style="shape=image;verticalLabelPosition=bottom;labelBackgroundColor=default;verticalAlign=top;aspect=fixed;imageAspect=0;image=https://static-00.iconduck.com/assets.00/cronjob-icon-256x256-vjv1rud6.png;" vertex="1" parent="1">
          <mxGeometry x="230" y="640" width="90" height="90" as="geometry" />
        </mxCell>
        <mxCell id="VNmvDEX7WC0NjHx1_vTM-4" value="" style="shape=image;verticalLabelPosition=bottom;labelBackgroundColor=default;verticalAlign=top;aspect=fixed;imageAspect=0;image=https://flowabl.io/images/integrations/api.png;" vertex="1" parent="1">
          <mxGeometry x="380" y="680" width="110" height="110" as="geometry" />
        </mxCell>
        <mxCell id="VNmvDEX7WC0NjHx1_vTM-7" value="Componente jdbc" style="shape=image;verticalLabelPosition=bottom;labelBackgroundColor=default;verticalAlign=top;aspect=fixed;imageAspect=0;image=https://nehajain216.github.io/img/jdbc.png;" vertex="1" parent="1">
          <mxGeometry x="360" y="930" width="150" height="80" as="geometry" />
        </mxCell>
        <mxCell id="VNmvDEX7WC0NjHx1_vTM-8" value="" style="endArrow=classic;html=1;rounded=0;entryX=-0.023;entryY=0.532;entryDx=0;entryDy=0;exitX=1;exitY=0.5;exitDx=0;exitDy=0;entryPerimeter=0;" edge="1" parent="1" source="VNmvDEX7WC0NjHx1_vTM-3" target="VNmvDEX7WC0NjHx1_vTM-4">
          <mxGeometry width="50" height="50" relative="1" as="geometry">
            <mxPoint x="220" y="670" as="sourcePoint" />
            <mxPoint x="270" y="620" as="targetPoint" />
            <Array as="points">
              <mxPoint x="350" y="685" />
              <mxPoint x="350" y="739" />
            </Array>
          </mxGeometry>
        </mxCell>
        <mxCell id="VNmvDEX7WC0NjHx1_vTM-11" value="" style="shape=image;verticalLabelPosition=bottom;labelBackgroundColor=default;verticalAlign=top;aspect=fixed;imageAspect=0;image=https://img.freepik.com/iconos-gratis/engranaje_318-409683.jpg;" vertex="1" parent="1">
          <mxGeometry x="399" y="820" width="72" height="72" as="geometry" />
        </mxCell>
        <mxCell id="VNmvDEX7WC0NjHx1_vTM-12" value="GET /random" style="text;html=1;align=center;verticalAlign=middle;resizable=0;points=[];autosize=1;strokeColor=none;fillColor=none;" vertex="1" parent="1">
          <mxGeometry x="555" y="719" width="100" height="30" as="geometry" />
        </mxCell>
        <mxCell id="VNmvDEX7WC0NjHx1_vTM-13" value="" style="endArrow=classic;html=1;rounded=0;entryX=-0.015;entryY=0.55;entryDx=0;entryDy=0;exitX=1;exitY=0.5;exitDx=0;exitDy=0;entryPerimeter=0;" edge="1" parent="1" source="VNmvDEX7WC0NjHx1_vTM-4" target="VNmvDEX7WC0NjHx1_vTM-12">
          <mxGeometry width="50" height="50" relative="1" as="geometry">
            <mxPoint x="390" y="612" as="sourcePoint" />
            <mxPoint x="445" y="690" as="targetPoint" />
          </mxGeometry>
        </mxCell>
        <mxCell id="VNmvDEX7WC0NjHx1_vTM-14" value="Processor" style="text;html=1;align=center;verticalAlign=middle;resizable=0;points=[];autosize=1;strokeColor=none;fillColor=none;" vertex="1" parent="1">
          <mxGeometry x="469" y="835" width="80" height="30" as="geometry" />
        </mxCell>
        <mxCell id="VNmvDEX7WC0NjHx1_vTM-15" value="Componente http" style="text;html=1;align=center;verticalAlign=middle;resizable=0;points=[];autosize=1;strokeColor=none;fillColor=none;" vertex="1" parent="1">
          <mxGeometry x="375" y="660" width="120" height="30" as="geometry" />
        </mxCell>
        <mxCell id="VNmvDEX7WC0NjHx1_vTM-16" value="" style="endArrow=classic;html=1;rounded=0;entryX=0.5;entryY=0;entryDx=0;entryDy=0;" edge="1" parent="1" source="VNmvDEX7WC0NjHx1_vTM-4" target="VNmvDEX7WC0NjHx1_vTM-11">
          <mxGeometry width="50" height="50" relative="1" as="geometry">
            <mxPoint x="160" y="860" as="sourcePoint" />
            <mxPoint x="210" y="810" as="targetPoint" />
          </mxGeometry>
        </mxCell>
        <mxCell id="VNmvDEX7WC0NjHx1_vTM-17" value="Monta a Query" style="text;html=1;align=center;verticalAlign=middle;resizable=0;points=[];autosize=1;strokeColor=none;fillColor=none;" vertex="1" parent="1">
          <mxGeometry x="471" y="855.13" width="100" height="30" as="geometry" />
        </mxCell>
        <mxCell id="VNmvDEX7WC0NjHx1_vTM-18" value="" style="endArrow=classic;html=1;rounded=0;exitX=0.5;exitY=1;exitDx=0;exitDy=0;" edge="1" parent="1" source="VNmvDEX7WC0NjHx1_vTM-11" target="VNmvDEX7WC0NjHx1_vTM-7">
          <mxGeometry width="50" height="50" relative="1" as="geometry">
            <mxPoint x="445" y="800" as="sourcePoint" />
            <mxPoint x="445" y="830" as="targetPoint" />
          </mxGeometry>
        </mxCell>
        <mxCell id="VNmvDEX7WC0NjHx1_vTM-19" value="H2" style="strokeWidth=2;html=1;shape=mxgraph.flowchart.database;whiteSpace=wrap;" vertex="1" parent="1">
          <mxGeometry x="575" y="940" width="60" height="60" as="geometry" />
        </mxCell>
        <mxCell id="VNmvDEX7WC0NjHx1_vTM-20" value="" style="endArrow=classic;html=1;rounded=0;exitX=1;exitY=0.5;exitDx=0;exitDy=0;entryX=0;entryY=0.5;entryDx=0;entryDy=0;entryPerimeter=0;" edge="1" parent="1" source="VNmvDEX7WC0NjHx1_vTM-7" target="VNmvDEX7WC0NjHx1_vTM-19">
          <mxGeometry width="50" height="50" relative="1" as="geometry">
            <mxPoint x="445" y="902" as="sourcePoint" />
            <mxPoint x="445" y="940" as="targetPoint" />
          </mxGeometry>
        </mxCell>
        <mxCell id="VNmvDEX7WC0NjHx1_vTM-21" value="" style="shape=image;verticalLabelPosition=bottom;labelBackgroundColor=default;verticalAlign=top;aspect=fixed;imageAspect=0;image=data:image/png,iVBORw0KGgoAAAANSUhEUgAAATwAAAB1CAYAAADTJV0WAAAABHNCSVQICAgIfAhkiAAAABl0RVh0U29mdHdhcmUAZ25vbWUtc2NyZWVuc2hvdO8Dvz4AAAAmdEVYdENyZWF0aW9uIFRpbWUAc2V4IDA5IGp1biAyMDIzIDExOjE2OjAxoija7QAAIABJREFUeJztnXd0VNXehp+Z9N57IZ2EQCAEglThinQU7GIDLIh6RcQG6lWviF68+lmuDSmiVBUFRAVFRE0CJBQpgYQkpPdkJj2TTGbm+2PMJIe0GYoYs5+1ZrHOPrv8ziS82e28W9avXz8dAoFA0AeQX+kABAKB4M9CCJ5AIOgzCMETCAR9BiF4AoGgzyAETyAQ9BnMTcls7eqL/4S5OIXEIjezQKUooihhM5Wnf8PWM4hBCz4AQKdRo1KWUHp4F6UpOw3l45ZsxdzWUVKnplnF4f/MlqR5DJlEyMzFpG18lupzRw3psY+ux9LJs9PY0jYuo/rcMcJvehbXqDEd7qeuWURd0dkenzH0+iW4x0zs9F5Rwhbyf17fY5yS70KnpaW+mursY+T9sAp1QzUAnrFT8Bt7O8feuafTttrX0Z6qjGTSt7zQ43MAzJo1mn/+cxYAKlUzWVlFfPLJDxw9miHJ5+PjxoYNz7Bp0z7WrPnekG5mZsYPP7xGQUEFc+euRKfTL+h/8MEi9uw5zPbticyfP4U77rgGgNraRs6cyWX9+h9JS8sz1OPq6sAjj1xPXFwEMpmMxMRTvPfeTurqGrGxsWLXruWUl1dx222vAGBtbcmOHf+mpUXD9OnPArBx4zI8PZ2Ry2UANDY28dprW0hIOGVox8/PnXvvncLQoRFYWJhRWFjJxo0/8csvxwGIjAxg4cLrCAvzpa6ukV27DrJhw0+G5xL8/TFa8CwdPRgw700aSrI4t/MN1HVKbL1CaK6plORLXbsYbUsTjkFD6Dd5AS0N1VSm/mK4n7d3NdVZRwzXOq2mQ1uuUWNQ1ylxjRotEZIzG5YhN7cAIHrem+Tv/4ya7GMANFWVGPJVpv5KUcJmSZ0qRZFRz5n/83qKD2wDoN/kB1HXKylK2ApAc53SqDhbOf7+/QBYOXnSb9IC+k15kMyv/mNUHK2c/vQpNI21husWVb1J5YuLK3n66dU4ONgwY8ZIVqyYz9y5KykpaXuWceMGoVDUMnbsIIngtSKXyxgxIpKDB8902kZqag7/+c9WXF0dmDo1nrfffognn1zFiRPnkMlkvPzyPDQaDS+8sB6ZTMYDD0zniSdu5sUXPwVAo9HS3NxCSIgP584VExsbRm1tIzY2loY27rhjBXK5jO3b/81///s5v/56UhKDp6cz7777CBkZhaxcuRWFopbQUB8qKvR/YNzcHFm58gF++eU4H3zwDd7eLixaNJu6OhVff51g0ncq6L0YLXgB4+9CXVtJ+uZ/GUSqrjC9Q76m6lLUdUoaSrNxDo3DOTxeInjNNRU0lOV02Y6ZlS1OwbHk7PmAgPF3k/Pde+h0WgBUikJDPp1OS3NNead1aZrqu22jO5prKmiuqdDX09xIS2Ntp3V1F2crTcpidFoNqsoCKk7+hGvUWJPjUVUWoD5PaE2hpUVLYaH+eTIyCpkwYTCxseF8/32yIc+4cYPYsuVn7rtvGsHB3mRnl0jq+PHHI9xww9guBa+pSU1hYQWFhRWcPJmNRqPh4YevY8GCtxgyJJTwcD9uu205CoVeuP/73y/48MPH8PJyoaamATMzOadP5xIfH8m5c8XEx/fnzJlchg4Nl7Sj1ep7YhqNtkMMc+dOpqKimmXL1hjut+9lzpw5ktJSJW++uQ2dTkdaWh5ubo7Mnj2a7dsTRS+vj2D0HJ5TeDxlR7/vtEfWLSbmd4kYgUpZTPmxPSA3wyFwoGnt/UmYEqelozvO4fGd9gL/TFr/U2s0bT8TDw9nwsP9+fnn3zl6NIOxYwd1KJecnEZYmC9BQd5GtbNz5wHCwvzw8HBm0KBgMjMLDWIHkJVVRFVVHQMHBhnSTpzIJj6+PwDDh/fn2LFMk57tqqui2LXrUKdiCDBoUDCHD5+VCFtychp+fu64ujqY1Jag92JUD8/M0gYLWyejh4UymRzH4CHYB0ST8flLknuhs58idNaThmvl2YNkfLHccO0aNRZlehI6rYaqjBRco0ZTk3vCqHZb8YydgseQSYZrjaqeI2/calIdPWFMnMOX7gCZDJlMTvnxvRTs/9TkdmIXfSa5zvvxY0qSd5hcj6WlObNmjaapSc2hQ2mG9HHjBpGeno9CUUtiYio33DCGTz/9UVJWq9Wxa9dBbrxxDG+88WWPbRUU6HuUHh5OuLo6SsSuFYWiBg8PZ8P16dO5PPjgDCIi/LGxsSIz07jfNQAbGyucnOwMPdnOcHV1oLKyRpLWeu3h4dThnuDviVGC1zpU02laeswb++h6kJuha1Fz7pu3qM7+XXI//6e1kjm89nNSZpbWOIUMpShhCwDK9CT6TX6QnD0fgglDjsrTv0nm8EzulfaAsXGeWv1PACzsXfEffzchMxaRtfNNk9o6s2GpZA6vuU5hUnl/f3d2734VCwtzCgsreOaZ1VRXt33nY8YMNEz8JyWlsnjxjQQEeJCfX27II5PJ2LEjiU8+eYrVqzvO8Z2PtbV+nlWr1aLRaDodLmo0Wkm6Wt1CamoODz44g0OH0kwaYrbmbWnp+ud8fnv6+MQwtq9hlOBp1U20NNRg5eoDPfS2zmxYikxmRuQdy1F38p+zuzk857DhyC2siL73bUm6g/8AavNTjQkVuLg5PGMwNs7G8jy92JZmo9O0EHXXa+T+sIoWVZ3RbV3sHF5pqZKlS9cwfHh/7rjjGkpL2+pycbEnJiaEmJgQHnhguiF93LgYNm78SVJPZWUNSUmpzJhxVZfDxlYCAjzR6XSUlCiprKwhKiqwQx5XVwfDgkIrycnpPPLI9WzfblpPWKVqpqamHl9fN44fz+o0T2VlDe7uTh1iACgvr+6siOBviNGLFlVZR/CImUj57z9029tSKYpQ1ykpSvyc4OmPcnLVQ2hbmo1qwzVqDMr0AxT8ssGQFjT1IVyjRpskeJebC4rzj+9Mx5/bq1CrNeTllZGXV8aYMQNZuHAmr72m75mOGTOQ8vIqnn12nSH/5MnDGDduUAfBA/jqqwRefnkuRUWVHe6156abxnHyZDZVVXWcOpXD3LmTcXa2p6pKL/SBgZ64uTlx6lSOpNxvv53EwcGGlJSzhIX5mvScycnpTJ48jN27UzrtHZ46ld1hfjIuLpzCwopOh9yCvydGL1oU/rYJW68QIm5+HuewYTgERuM5dCrWrn6d50/YCjLwG3u7JN3S0R1bzyDDx8Y9QB+IuSVOYcMpPfwNDaXnDJ+K43s73VfXHWZWdpI2bD2DkJtb9lzQCEyJ08rFB2s3PxyDBhMw8V5q806haTeEl5lZYO8XKfmYWVpL6rB285c8h6WjxwXH/uabXzJ+/GDi4vSrn2PHxvDDD0fIyioyfHbsSCIszA8fH7cO5dPT8ykuVtC/f4D0Oa0sCAz0ZOTIASxfPo+4uHDee0+///LEiXNkZxfz4ot3M3hwKHFx4Tz77BySklIlvU2AiopqPv30RxobmzqNv3UPnplZx1/bDRv2Ehrqy0sv3UN8fCSDBgUzffoI/P3dAfjuu2T8/NxZtOgGIiMD+cc/hjB//lSxQtvHMLqHp6os4PT6JwiYMJfQWU8ht7CisSK/yx6NTqMm+9t3iZyznMrUXwxDzMCJ98HE+wz5WjceO4UOBa2WmhzpkFmRfoCg6f/EzjeCeiM2DgO4RY/DLXqcJM3Yjcc9YUycuj96tIMf+hgAbXMj1eeOkbP7fUkZC3sXouf/X7dxDrh7peS+KRuPzyc/v5xNm/bx2GM3snjx+wwZEtJh311hYQU5OSVcfXUMX3zxa4c6tm37jRdeuEuSFh0dxNq1T1BVVc/x41k8/PC75OS0bW157rl1LFp0AytWzEej0XLgwGn+97/tJsW+ceMyPDycMDOT88ILd3fYeJyfX85jj73H/PlTWbr0dqytLcnLKzX0Iisra1i6dA0LF85k2rR4qqvr2b49ka+/TjQpDkHvRib88AQCQV9BvEsrEAj6DELwBAJBn0EInkAg6DMIwRMIBH0GIXgCgaDPIARPIBD0GYTgCQSCPoMQPIFA0Ge4IMF78OYaPltRdqljEQgEgsuKSWdaAHi6alh0ZxWzH/O5HPEIBALBZcPkHt5tU+o4nWVJWrbF5YhHIBAILhsmC96kUQ3sSbK9HLEIBALBZcUkwbOy1BEZ3MzvaVaXKx6BQCC4bJgkeJ6uGszNoKDU7HLFIxAIBJcNkwTP3lZv7V3XIHazCASC3odJytWg0me3s+n+TAOBQCD4K2KS4JUrzNBqwdfz0p4CJhAIBH8GJvbwZJzNtSA2svMzBwQCgeCvjMmTcT8esGXyqIbLEYtAIBBcVkwWvM3f2xMT0UxEP/XliEcgEAguGyYLXlG5OW9vdGLZfRd+OLRAIBBcCcSpZQKBoM9gVA8vODj4cschEAgElx2xg1ggEPQZhOAJBII+gxA8gUDQZxCCJxAI+gwmOx5faT744APc3d2Ry/Va3djYyLvvvsuhQ4cwMzPj888/B0Cj0VBWVsZvv/3Gtm3baGlpMbqN0FlP4jZgHDIz/dej06gpSdlJ3o+rARgw97/Y+0Xy+7vzaK4pByDw2vuwcvIi48tXiH10PZZOnp3WnbZxGdXnjhF+07O4Ro3pcD91zSLqis4CYGZtR8D4u3HpPxILO2eaqsspOfQ1pYd3ARC3ZCvmto6S8ppmFYf/MxsAr+HXETRloSG9oewchfs/ozr7d6O+B5ncjPhnd6FSFHL8/ftBp1/QH3jfO5Qf30tpyk4A7Hwj6DfpAey8w2hprKXs6PcUJmwGnY7Q65fgHjOx0/qLEraQ//P6HuNwCokl8o4VlB3bTfaut/XfjaUNw57+ipMfLaSxIp/4Z3dxev0T1OalGsoNfuhjSlK+McQZu+gz8vd/SsXxHzttJ3TWU6DTkLXjDaO+H0Hvo9cJ3sKFC5HL5axfv5733nuPgwcPdsjz5ptvkp+fT0hICHPmzCE8PJzly5cb3UbW9tfJ2v46Ebe+QHN1GTm7P+iQp6m6DO/468nbu7rDvTMbliE31ztCR897k/z9n1GTfUxfrqrEkK8y9VeKEjZLyqoURQDIzMwZcPfryM0tyN+3DpWiCAsHNzSqekn+vL2rqc46YrjWaaXvOTcpi0nb9Bxm1vZ4xU2n/+3/5vj799NUVWr094FMjnPYcKoykjvcsnRwI+rOFVSe/o28Hz/GytmLoCkPo2mqoyR5J/k/r6f4wDYA+k1+EHW9kqKErQA01xm/l7O5pgK3AeMo2PcJ6oZq42MXCNrR6wQPQKvVSv49H4VCQV5eHnl5eaSlpfHWW28xfPhwUlJSTG5L10Ublad+xmvYTAp/3YCmWSW5p1IUtpXXaWmuKaehLKdDHZqm+k7TATyGTMbKyZPf37uXlm7+gzfXVHRZhz5+jUFEs0uycB0wDsfgIZQf29NlmfOpOPET3vGzOhU8z7hpNFWXkf3tO6DTUVeYjoW9K17Dr6ck5RuaayporqnQP29zIy2Ntd3G2xVajZqas4fwGDqVooQtJpcXCKAPzOGVlJTw+++/M3z48Etar7q+mrqCM7jHXHtJ623FOXw4ijMJ3YqdyfwxJNVpTHO7qc5Mwc47BFuPfh3uOQREU5111FA3QFXmYaxdfbG0d724eNthbmVHafJ2vIbNQCYXBrSCC6NX9vBMpaSkhMDAwEtap9zMgpLk7QRNfZjSI7suqA7P2Cl4DJlkuNao6jnyxq0AWDl5UffHfJSlkydDHlkLQEtjLUffvN1QJnT2U4TOetJwrTx7kIwvOg7f5eaWeA2fibaliapM03q6Op2OsqPf4zVilmEOrRVLB1eUGQpJmrpOf23h4EZzbaVJbXWFzNyCuqKzNFWV4BY9DmV6x6kMgaAn+oTgWVlZoTGxV9MjMqg+dwxtixrnsAvrPVae/k0yh9d+/k1uZo72j2t1bSWnPn4Eh8CB+F99l6SO/J/WSubwWs6b47N29SN+2U5kZhaoFEWkb3re5F6jTCajJOUbBj/0MQX7PpHc02o0kt7dHw+iL2dSKz1GAUDJoe34jLpZCJ7ggugTgufj40NBQcFlqbs0eQfe8bNoKMkwuWx3c3jq+iqsnb0AvRA2lOVg5eTVIV9Pc3hN1aWkbfoXzmFx+I65jebqCztAXV2nQPnHHFp7YVbXKbB0cJPktbBz0cd2iXp37VGmH6Dftfdj5xthSNPptKDTITeXHi4lt7BCpzV+dV7w9+dvP4cXHBzMwIEDOXTo0GWpv+LkPuy8Q7DsRIwuhpqc47j0H4Xc4uJOiNNpWlBV5lNyaDuq8jwCr73/gutqnUPTadpEpDYvFaeQWEk+x5BYVIoimusU51dx0ei0GkpSduI1bHqb8Op0NNcpsHEPMOSTW1hhYe9qWDARCKCXCl7rHrzWf8/H1dWViIgIpk+fzosvvkhiYiInT568oLZkXbTRiralmbKj3+PSf6TJdZtZ2WHrGST5yM0tAShJ2YnMzJzIOa/gHB6PnU849v5RHeqwdHSXlG//n/58zn37Dm7R4zoIlLG0zqG1712V/74HKxdfgqc9gr1ff9yixxMwYa5+79v5Q91LRNmx3TiFDJWkKdMS8Rt7Oy7hI7DzjSBkxiJaGmupzT0hyWft4oO9X6ThY+3mL7lvbuskuW/f7llbcXNz47PPPmPGjBmX/uEEl5VeN6Rtv/H4ySefRKVS8c4770h6cI8//jhNTU2UlJTwxRdf8N1335nURuj1T+AWfbVh47FH7BRKD39j2Hh8PiUp3+Az6maTn8Utehxu0eMkaa0bj1saakhd9zgB/5hH6HWPI7e0obmmgoqTP0nyB068DybeZ7huv/H4fFSVBRQmbCVo2j85+dFCtGrTrfpLDm0n/KZnDdfNtZWc3fw8gZMewGPIZNQN1ZSm7KTkj82+lwONqp6Kk/vwGjbTkJa/bx1yC2tCrl+C3NyS+pJM0jc/32HLkN/Y2/Eb27boU5WRTPqWFwzXzmHDJXOynX2f/v7+2NracurUqUv9aILLjFF+eMHBwWRnZ/8Z8QgEf3lmz57N+PHjWbRo0ZUORWAivXJIKxBcSSIiIti7d++VDkNwAYgenkAg6DOIHp5AIOgzCMETCAR9BiF4AoGgzyAETyAQ9BmE4AkEgj6DEDyBQNBn6FVvWsyZM4cbb7wRgLq6OjIyMti6dSsZGW0v7j/55JNcddVVHco+/fTTZGZmAuDr68u8efMYMGAAOp2OkpISvv76axITEw35Y2JiuOWWWwgJCUGtVpObm8uaNWvIzc1l6tSp3Hef/u0GlUpFbm4uW7Zs4cSJtteYurOib8XHx4c5c+YQExODhYUFxcXFbNu2jaSkJEMeLy8v3n//fbZt28amTZskz+Ts7My9997L4MGDkclkJCcns3btWurrpY4pnSG3sCJuyVYyt69EmdbWnkwmJ/bxTeTvWycxCQ29/glcB4zlyBu3oW1uNKTbegYxaIHeEVqnUaNSllB6eJfBVr0Vp5BY/MbegZ1PGFqNmobSc+Tu/pCGsmwGzP0v1VlHKPytzTkmePqjmNs4kPHlK4Y0KxcfhjyylqKEreT//ImkfoNlvk5Hi6qOmtwT5O1dQ5OyuMOz21nYsWbiR7x8aAWpitOG9Kgh4Uy58R8Ehvqh1Wo5fug0W1fvoKlR/0aKk4sDr659TlJXY4OKJXe0vakxZ+ENjJk0QpLnizXf8POuBMP1GN/RzB9wDwv2PYxaq+4QX3f0ZHffaiThHnMNfmNuw8rZi0ZFEQX7PzX8nC+F7X7AhHvwHXMbWdtXUnHyZwBcwkcQct3jHHnjVpxCYul/+8skv9L2+p2FvQtDF28yxGnt6svgh9fw+7tzu3TgvtS2+71K8ADS09N59913cXZ25pprrmH58uW89NJLnD7d9oubmJjIl19+KSlXXNz2i//MM89QU1PDq6++SnNzMwEBAVRVVRnuDx8+nKeeeoo9e/awZcsWtFotUVFRKBRtL8OXlpby8ssvY2dnx+TJk1m2bBmPPvooZWV6N5KerOjd3d1ZsWIF2dnZ/O9//6OqqoqgoCAqK6UOIyNHjqSqqoqRI0dKBE8mk7F06VI0Gg0rV65EJpNx11138dBDD/H666/3+D1q1U1UZR3GJeIqieDZ+UZgbuMgsV+Syc1wibgKjaoel/ARVKbu71Bf6trFaFuacAwaQr/JC2hpqKYy9RcAXCKuIvzm5yg78i0Fv3wGWg32gdE015nmpuIaNRp1nRLXqNEdBA+gMnU/Bfs3YOXkgf/4u+l/20uc+HBBh3d67468kzOKNInYmVuYc8PcGRw/eIptn3yLo7M9tz84m1l3TWXrqu0AOLo4oNFoeXVJmyegViN1xHZ0duDnXYkk7m1zh65W1EryJBQlclPYbG4Ov5FN6aa7N/dkd+8SPoKQmYvJ27uGuvxUHIMGE37jMk6tfpSG0nOXzHZfpSzGK36WQfB6A71O8JqamiguLqa4uJgzZ86g0WiYP38+TzzxhCFPQ0MDeXl5nZa3s7PDz8+PtWvXGt6FPHv2rOG+TCZj3rx57Nmzh9Wr296dbS+ooD8kqFVEz507x6hRoxg0aBA//dT2rmt3VvS33XYbCoWC5cuXG+6376m2ctVVV/H1119z5513EhgYaHiugQMHEhwczAMPPGAQ6/fff5/XX38dDw8PysvLu/oKDSjOJNJv0gMgkxlEwTl8OHX5pyWeeY7BQ9CoVZT//gOuUaM7Fbym6lLUdUoaSrNxDo3DOTxeL3gyGf0mPUDZkW8lZ4PU5Jn+Hqpr5BiKkj4n4B/zsPUM6mCLpWlqRKUoRKUoRNPcSPT8t7B29kbVrpdnbW7NlKBJ/PvQK5KyLeoWVix+C107cfzluwMMGzu47XtwdqCyTEFRbgld4eTiwNGkE93mAfg253vmDbiHrWe/QKMzzauxJ7t771E3UXr4W0oOfQ3oTR/sAwbgPfw6zu1665LZ7tflp+LYLwaHgGhq81N7LvAXoNfP4e3Zs4fg4GDc3Nx6zoxeDBUKBbGxnTuG+Pv74+XlxZ49xp/50IopJqNxcXH8+OOPXZ7LAXpXjtDQUBISEjhx4oRkqB4VFUV2drakZ5qTk0NNTQ2RkZFGxVCVcQhza3vsfMINac5hw1GkJUryuUaNoersQarOHsQ5bLhxllV/WDfZugdi5eJD6ZFvjYqpKywd3bHzCaMy9Rdqsn/HJXK0UeW05x1qFOsxBBkyjpV3PLlNd15P0MbOmrqatukBB2d7nF0deeXjpby27jkWPjsXnwCpLZiDswPX3zmVlev/xfPvPM61s69GJu9ohZpYdAA3azdCnUONeo72dGd3L5Ob4eAXSfW5I5L0qoxkHAIHmtxWd8gtrClJ2Yn3iOsvab2Xk17XwzufoiL9ATXu7u6G4eDEiRO55pprDHnq6+uZO3cuoP+lfuWVV3j66acZOHAgO3fuJCEhwSBWXl5ehnk9Y7CwsGDatGk0Nzdz9OhRo8rY2Njg6OgoGWZ3xsiRI8nIyKCqqork5GSmT59uOIbSxcUFpbLj8EOpVBot/pqmBqqzf8cl4irqi85iYeeMnXeYZN5MJjfDtf9IMr9eqXdxaazVi+KZhA71yWRyHIOHYB8QTcbnLwFg5ewNOh0qRffP6nf1nfiNu0NSV3vhdY0aQ33RWdR1SpTpB/CKv57CXzd2Wpe5rSPeI26gNu9UB8PTSJf+pCvPotV1/YcG9OI2ZlI8mz/abkg7knCCGmUtlWVKbO1smHzTBBYvX8BLj7xBfa1eGD96bT1yMzNUDSpCo4K4ef5MLCzM+e5zqctNQ0sDebX5RLr056zyLKbQnd29uY0DMjNzg81+K+p6JZaO7ia1Y0wcZcd24zf2diwdPS5p3ZeLXi94Vlb63kb73lVSUpJkDu/8XlROTg6PPPIIY8aMYdasWdxyyy28/vrr5OTkoNVq0el0PfbWfHx82LJli2GxYfny5dTU1BgVc2s8PZ2VO2LECJKT9XNBKSkpLFiwAF9fX4qKirqMz1Qre0VaAt7Dr6Ng/6c4hw2noSxbMoHsEDgQmZk5NTnHAVCePYBr1JgOghf76HqQm6FrUXPum7cMZ9/qdFp06Aw9vq4oTdlF+bHvDde+Y26XeBG6RI5Gka6fa1SkHyBo+j+xdvNHVdnmZO0xZBIeg69FZmZOddYRiXAb8ti4U9rQveuzpZUl9z95J5mnczia2LYQpW5Wc/pYmzitfn0jr619jiFXRZP4o/7nlH+uqO2ZCsuxc7BlwvTRHQQPoLyxHA8b4/44Sena7l7XKuTn9Va7On3vYpAhM1h1ecdfT23uhXlO/pn0+iGtn58fOp1OMmfVOofX+unM3l2j0fDLL7+wZMkSsrKyDKuuFRUVyOVyPD07P0i7lfLycpYsWcK6deuws7Mzas6slaamJmpra/H29u4yj5OTEwMGDOCuu+5i27ZtrF27FrlczsiReqNRpVKJi4tLh3IuLi4dFj66oyr9IDYe/bB0dMcpbDiKdgsYoO9ZmVnZEf/sLkY8/z1ew2biHD7CYFTaypkNS0n7bCkyuVzSu2iuKUcmk2Pl3L0jdEtDFQ1lOYaPpqltKGlh54xj4EACr7mXEc9/T9ySLchk8g4HmSvTEjnx0UNUnvoZmbkF6vqq85vBzsKOenXXq9iWVpY8uOwedDoda9/Y1GU+0M/7VZRW4ujs0GWekvwyHF06v9/Q0oCNuU23bXSHMv0AlnbOEkPWloYadJoWLM633bd3uWzuzyXJO/AYMgnZH2cxg/5kPJlMbvCUBAwW/NpLfb6MCfR6wZs5cyZnzpyhuvrCjjPUarVkZ2fj5OQEQH5+PpWVlUyYMKHbci0tLRQWFrJr1y4KCgoMQ2ZjOXbsGOPHj0cm6/yomxEjRlBZWcmSJUsMn127dhkE78yZMwQHBxviBr34u7i4kJaWZnQc6oZqavNO4RwWj1NILMr0doInk+EaOYr8n9dzctXDnFz1MKlrFgGQ4iPhAAAP0klEQVQ6nEKljsMqRRE1uScoSvyc4OmPGgSxoTyX5ppy3Adf+HGWLpGjaK4pN8RwctXDlBza3kHwWlT1qCrzyd3zEbYeQZIT4VppaGnE1sK203asbKx45F/zAXh/+TrU6u574JZWlnh4u1FZ1vXKpm8/7y7v25rbUa9u6LaN7ujU7h6ozU/FKVg6R+0cMpTaC1goMgZVZSF1BWdwjWqbV22uqwSZDBu3Ngdua1dfdDotahNX5y8lvW5Ia2Vlhb+/P97e3kycOJFBgwbx3HPSvVG2trYdjmUsLi5GrVYTFhZGZGQkmZmZ1NbWEhAQwLRp0wxDR51Ox6effsqiRYswMzPj2LFjyOVyQkND2blzZ6eLDB988AFvvvkm+/fvl+zF686K/osvvmDlypU89dRT/PDDD6hUKvz9/Tl16hTFxcWMHDmS/fv3k5OTYyize/duZsyYgZeXF6dPnyYvL48nnniCLVu2YGZmxt13301KSopJvU0ARVoSXsNn6lfrSttswBz8B2Bu40Bp8g407fbeKdMP4ho5ptOTwwoTtuI2cDx+Y2/X7+fS6cjbu5bQWU8gk5vpT1iTybD3jaD4wLa2IVg3uEaOoeLETzSUnjOklR7+Bu8Rs7By8emw107dUE3e3tUEXns/yrOHJCvOFY0VhDuHdWjDxs6Gf75wLza21mx470u8/dt6+BWlSupr67nmurHUVtdRnF+GnYMt1866GlVjEyeS9SuUTq6OXDvrak6knKaxXkXYgCCm3PQPdm7c3elzedp6kFSc1Ok9Y2mdQ2tPyaHthN/8HCplMfWFaTgGx+ISOZrUtY9dVFvdUZK8nYhbX0T7h8O0qrKQhtJsgqf/k7yf1iCTmxNwzXyqMlPQNElF3tY71HDwE0BTdZlklNBqu29Ap6WuSDrvOXr0aB588EFefPFFsrKyuoyz1wle//79eeutt6ipqeHUqVM888wz5OfnS/KMHj2a0aOlq3itG49VKhVxcXHccMMN2NnZoVQqSUpKYvPmtk2vCQkJtLS0MHv2bKZOnYpOpyMzM5OdOzu3LS8qKuKrr75iwYIFLF68mObm5h6t6IuKinjuueeYM2cOjz32GFZWVhQUFJCWloa9vT3R0dFs3CidlC8uLiY/P5+RI0eyfft2Xn31Ve6//36WLVuGVqslJSWFtWvXmvydKtOTCJr8IMWHvpKku0aNpvrcMYnYteYPmfGYZLjSik6jJvvbd4mcs5zK1F9oKMuhMnU/Oo0an9G34DX8OtBpqS/OMOwF6w5zGwccg2IoOG/fnUpRREN5Lm5RYyhK+qJDufLjP+I+eCJBUx4k86v/GNLTlWeZGTwduUwuWbjoF+ZPULi+N7JkxUJJXZ+++zkH9x2hqrKGKTdPwNPHnRZ1C2dPneP/nvsI1R8bk5sam3B2deTeJXOwtbOholTBjg272f+tdNUbwNbclgB7f9KU6T1+B93Rmd298uxBcna/j++om7F0cEelLCbzq9eoL868qLa6o/rcMVSKIsnh6xlfLido6iP0v3056DRUZR4hd/f7HcpG3Py85Dpv72rJ74YxtvtBQUFoNBpJB6EzhAGooE9ha27L1qkb+dfBlzrdmvJncW3gNdwTdTd3/zCvxxVjQc88//zzlJaWsmrVqm7z9fo5PIHAFBpaGvgx/yemB0+7onFMD57GruxvhdhdAmQyGWFhYUbZ7gvBE/Q51qV+wkC3AUS69L8i7V/tNxZHCwe2ZX59Rdr/u6HT6bjnnns4d+5cj3nFkFYgEPQZRA9PIBD0GYTgCQSCPoMQPIFA0GcQgicQCPoMQvAEAkGfode8aWFlZcW6det4++23JTbpcrmcNWvWsGHDBon55qOPPsqoUaOYO3cuKpVKUteqVavYvHkzP//cuVNrT9bpxli8d4f/1XfiEjmKkx89JEn3jr8en5E3ceztu9qeuxtb87glWzG3dUSn1aCuU6BISyJ/3zq06qa278fShoDxd+EaNQYLO2eaayupOLmPgv2fETDhHuz8IknbsNSQ3y36aoKmPMSRN26VtHWxFu+trBj1MicqTrHl7Na2Z7SxYvotE4kbE4ODkz1lxZXs+Ox7Th4+Y8jz4ntP4ukrtTda8fjbFGTr3UmGjR3C/Melr1idSD7Nh6+22ZXLZXLen/Au2zK/5se8nvdsCf5+9BrBa2pq4tixYwwbNkwieGFhYdjb25OSkmJIMzMzY9iwYdTX1zNs2DASEjp6t3WFsdbpPVm8d4ciLRG/cXdg6ehBc03be6/O4Z25lXRva577w0dUZx3B1jOIfpMXIje3JPvbd/TPIjcj8o7lWNq7kr/vE1SVBVg6eSJv52ph1HdykRbvrYzyGUmIUzAvHPy3JD1udAyhA4LYumoHysoqrpoQxwNP38VzC16jWqG33HJ0ceCTt7ZSkNNmv1Re1Ob+4ehsT3Z6Lhs/aHs9rrFe+odOq9Py8ak1PBu/lISiRBpbpK/MCf7+9BrBAzh48CDz5s1DJpMZ3GmHDh1KWlqaxIsuJiaGpqYm9u3bx8iRI00SPGOt042xeO+KhtJsVJWFuESMoPTwLkB/qI5D4CCKEqXvhfZka66uU9JYkU9jRT5WLj54DWs7NMVt4ATsfcL5/X/z26yBikwzm4SLtHhvx+zQ6/khd2+Hg2uS9qZw4KfDhp9pQXYxo6+Np1+YPyeST2NhaYG1jRVnT2VRVdm5K46jiwNFeaU9WqsfLTtGbXMt/wiYwLfZ35nwLQj+DvSqObzDhw9jZ2dHaGibLfbQoUMlPT7QnwORkpJCSkoKsbGxBpNQY7gY63RTzDcVaYk4h7edbuUUNARts0pi4XMhtubtjR5dIuJRpB+8aB+0i7F4b8XOwo7BHjEkdOEO0t5e3dLKAjNzc+pr9a4ajs72ACxevoCV6//Fk689REz8AEl5J2cHBo+I5rV1z7F81VJuf3A2NnYdveZ06EgqSmKk94gO9wR/f3qV4DU2NnLy5EmGD9c7Jzg5ORESEmKwdgL9nF58fDyHDh0iMzOTurq6Ls+v6AxTrdMtLCyYOXOmSRbvoBc8p+DBmFlaA/rhbFXGIYmv2fm25uf7v7XH2s0f90HXUHGibW7KytmbJmVRl2UAnIIGE//sLsMndPZTkvutFu+KtCSJxXtnyGRynEKGYh8QTcXJfZJ7/V0iUGvUZFV1bd3TyuQbJ1BSUEp2uv7AosoyJW//axWrXvuUt/61irOnzrHg6bsJjw4xlNm5aQ+r/7uRN5/9kM0ffkXEwFAeePquTus/o0y7Yq+VCa4svWpIC3DgwAGmTZvG5s2biYuLIzc3VzJvFh0djbm5ueFEsuTkZEaNGtXhmMSuMNY6/WIs3gG9kNVX4xg0BOUfPaf2p3qBcbbmobOeJHTWk8jkZhQnfSk521Wn06Ft6f7c07qidMP5pgBOoXH4jrrFcH2xFu+teNi4o2hS9HhC1+AR0YyfPpp3XvhY4j2YfrJNKHfk7sYvyIfR18aTkap/f1JZUY2yQj/cLSuqoL62gadWPoKnjztlxdIebmlDGU5WTljILUw+F1bQu+l1gtd6toObmxuxsbGdDmdtbW0Nh92AfiXVwsICtbrnX26lUkl4eHiH9POt08vLy1m+fDmxsbHceOONJptuwh/D2ogRqJRFmNs6UZ19zHCv1da81dq8FdeoMZKj+fJ+Wkt1ZgoRt76ARq2S9BCbq8uwdvXtNgZNs0oyL2jj0U9yv73Fe/sycnNLtC3NhrQzG5Yik+kXSc4/QAb0Q9oGdfeLBDHDBzD3sdtY93+bycnI7zZvSUEZ/sFdP1tJgf6PoKOzQwfBa/hjscLG3AZ1sxC8vkSvGtIC1NTUcObMGeLi4oiJiZEInkwmY8SIEWzatMlgi/7000+j0+kYMmSIUfUba51+sRbvAIozCTiHxuEUMpSqrMOS7STG2pqraytprMgn+9t38RtzK9btLLWrs47gEjECc1tHk2MDLonFeyuN6kZszK27bCpu9GDmLtaL3Ynk013ma8Wvnw+KbqzVfQL154VUlnUivuZ6i/fuzrYQ/D3pdYIH+tXaqVOnUldXR25uriG9f//+2Nvb891335GTk0NOTg6ZmZmkpKQYzoJoxdvbm4iICMPH11ffW2hvnR4dHU1MTAyLFy/u1jr9gw8+YNSoUcTExJj0HHX5p5GbW+IxZDLK87ejtLM1b/2UHv4GO+9QrFx8OtRVk3OcilO/EDzjUf3B2kD5ib00VZURdddruEVfjYP/ANyix+EUMrRD+c5ob/HeGkNd0VmDxXtnFCZsBRkdbMcrVBW4Wrtidt45qgAjxg9l7uJb2bPtZ6oVNfQL86dfmD9+/fTPOTAukmuuG0twRCDB/ftx873XETEohF93t01T3HLfdQwcFol/sC9xowdzz6JbOH4oFWUnq7petp4om6pMPgBb0PvpdUNa0M/L3XvvvXzzzTeS9JEjR3LixAkaGxs75F+4cCHm5uaGoxFvuukmbrrpJkOeI0eOsGLFCgCTrdM7s3g3Bp1OiyItEY8hk6nKaFt4uVBb8/y9q4lZuArP2KmUHf0OnaaFtA1L8Z9wD4HX3o+FrRPNtRXk71tnVHyXyuIdIF2ZgZWZFSGOwWRUSa3Gx0wagZmZGdffOYXr75xiSFeUV/HcA6+irKzm2tlXM+3WiZiZySnMKea9l9eRl9U2l6lqbOLW+2fh7OpIXU09R5NOdnmWRKRLf84ojD/oSPD3QfjhCf40/m/cfzlecYJPTn96xWKQIeOTSWvYnL6F3bk/XLE4BFeGXjmkFfROdpzbyaTAiZjLr9zAYqhnLPYWduwv/PWKxSC4cgjBE/xp7C/4ldzaPG4Mm91z5suAmcyMBYPu48OTH6NqUfVcQPC3QwxpBQJBn8EowRMIBIK/A2JIKxAI+gxC8AQCQZ9BCJ5AIOgzCMETCAR9BpMEb8roBn76uAhLC7HOIRAIeh8mCd7uRFuUNXIeuMl4GySBQCD4q2DykHbTdw7cMa0Ws47vgBt4/PHHWbZs2cXEJRAIBJcckwXvhwM2eLlpiA7t+gX5lpYWw0v6AoFA8FfB5Jca6xrkZOZbMKR/EyfOWnaa55133rnowAQCgeBSc0GrtEVl5ni7Cy8xgUDQu7ggwatrlGNno+05o0AgEPyFuCDBc7DVUlsvtvAJBILexQWplq9nC8UVXS/TvvHGGzzxxBMXHJRAIBBcDkwWPHtbLaH+an5P6/wwZktLSwIDAyUH3ggEAsFfAZMFb9LIRoorzDmT3fkKbVBQEABJSZ2fMC8QCARXCpMF747ptWzYZY+2izWLiIgIjhw5gkLR8Xg8gUAguJKYZAA6fVwDj99VxdSHfGhWyy5nXAKBQHDJEY7HAoGgz2DUmxb/99abACxb+uxlDUYgEAguJ2IznUAg6DP8PzA/m3vbK42jAAAAAElFTkSuQmCC;" vertex="1" parent="1">
          <mxGeometry x="620" y="861.13" width="186" height="68.87" as="geometry" />
        </mxCell>
        <mxCell id="VNmvDEX7WC0NjHx1_vTM-22" value="" style="endArrow=classic;html=1;rounded=0;exitX=0;exitY=0.5;exitDx=0;exitDy=0;entryX=0.467;entryY=-0.058;entryDx=0;entryDy=0;entryPerimeter=0;" edge="1" parent="1" source="VNmvDEX7WC0NjHx1_vTM-21" target="VNmvDEX7WC0NjHx1_vTM-19">
          <mxGeometry width="50" height="50" relative="1" as="geometry">
            <mxPoint x="780" y="770" as="sourcePoint" />
            <mxPoint x="830" y="720" as="targetPoint" />
          </mxGeometry>
        </mxCell>
        <mxCell id="VNmvDEX7WC0NjHx1_vTM-23" value="Buscar a String gerada randomicamente" style="text;html=1;align=center;verticalAlign=middle;resizable=0;points=[];autosize=1;strokeColor=none;fillColor=none;" vertex="1" parent="1">
          <mxGeometry x="559" y="700" width="233" height="26" as="geometry" />
        </mxCell>
        <mxCell id="VNmvDEX7WC0NjHx1_vTM-24" value="" style="shape=image;verticalLabelPosition=bottom;labelBackgroundColor=default;verticalAlign=top;aspect=fixed;imageAspect=0;image=https://aux2.iconspalace.com/uploads/plus-vector-icon-256.png;" vertex="1" parent="1">
          <mxGeometry x="243" y="825" width="47.5" height="47.5" as="geometry" />
        </mxCell>
      </root>
    </mxGraphModel>
  </diagram>
</mxfile>
